<?xml version="1.0" encoding="UTF-8" standalone="no"?>
<svg xmlns="http://www.w3.org/2000/svg" width="320" height="283" version="1.1">
<path d="M 203,8.3 A 8.3,8.3 0 1,1 203,24.9 A 8.3,8.3 0 1,1 203,8.3 z M 252.56029,39.533064 C 244.10066,39.533144 237.8859,40.570872 233.93529,42.595564 C 228.86235,45.195452 224.47001,50.9783 220.74779,60.00181 L 224.81029,60.00181 C 227.40455,54.58772 231.63245,51.87687 237.49779,51.87681 L 245.96654,51.87681 C 237.7325,87.40717 228.68438,105.27464 218.87279,105.18932 C 215.71301,105.16184 214.15404,102.92524 214.15404,98.75182 C 214.15404,97.73669 214.31566,96.61759 214.65404,95.37682 L 210.59154,95.37682 C 209.01241,102.25731 208.21654,106.72153 208.21654,108.75182 C 208.21654,114.61715 211.32533,117.53307 217.52904,117.53307 C 226.77819,117.53307 234.88413,107.03518 241.90404,86.06432 C 243.7949,80.41566 246.81216,69.02165 250.87279,51.87681 L 273.52904,51.87681 C 273.1906,53.11761 272.6803,54.938582 272.02904,57.31431 C 264.6719,84.152382 260.89317,100.11662 261.02904,105.18932 C 261.23155,112.74961 265.67921,116.92947 274.02904,117.53307 C 275.04117,117.60624 276.07916,117.5125 277.09154,117.37682 C 287.02023,116.04617 294.0743,107.28772 298.24779,91.15807 L 294.18529,91.15807 C 293.84682,92.39884 293.5694,93.701477 293.15404,95.03307 C 289.73437,105.99608 285.26781,111.43933 279.96654,111.43932 C 276.58263,111.43933 274.90399,109.64251 274.90404,106.03307 C 274.90398,103.66439 275.66861,99.03857 277.24779,92.15807 L 287.74779,51.87681 C 295.98172,51.87687 301.25026,51.456152 303.49779,50.53306 C 307.56675,48.861882 310.63585,44.097224 312.77904,36.314319 L 309.56029,36.314319 C 308.43225,39.247054 305.95771,40.720644 302.12279,40.720564 z M 176.27904,45.720564 L 176.27904,48.93931 C 180.07923,48.33355 182.59861,48.03313 183.81029,48.03306 C 185.29731,48.03313 186.44055,48.431965 187.27904,49.18931 C 188.14789,49.974075 188.59152,50.94646 188.59154,52.15806 C 188.59152,53.70023 187.69769,57.50606 185.93529,63.56431 L 175.21654,100.56432 C 173.83965,105.30082 173.15403,108.68279 173.15404,110.72057 C 173.15403,112.75837 173.83333,114.48326 175.27904,115.84557 C 176.69725,117.18196 178.55219,117.81431 180.81029,117.81432 C 184.22495,117.81431 187.80714,116.34801 191.56029,113.43932 C 196.6192,109.51866 201.03387,104.72969 204.77904,99.00182 L 201.90404,97.09557 C 198.70962,101.66685 195.55457,105.19418 192.40404,107.65807 C 191.25869,108.5538 190.23015,109.00183 189.40404,109.00182 C 188.68804,109.00183 188.0653,108.72257 187.52904,108.15807 C 187.01887,107.62105 186.77901,106.88305 186.77904,106.00182 C 186.77901,105.23078 187.33375,102.9122 188.43529,99.00182 L 204.77904,41.064314 z M 138.68529,230.81432 C 124.1161,242.04699 113.11677,249.37878 105.65404,252.68932 C 98.325277,255.94043 90.630137,257.50182 82.622785,257.50182 C 72.613435,257.50183 64.070221,254.08138 57.091535,247.15807 C 50.057231,240.17959 46.591495,231.71242 46.591535,221.81432 C 46.591495,218.1443 46.969245,213.53133 47.747785,207.97057 C 70.324235,205.41271 87.841858,201.80897 100.31029,197.28307 C 119.09306,190.46513 133.35015,181.63046 142.99779,170.59557 C 150.36592,162.16797 154.02889,153.29523 154.02904,144.06432 C 154.02889,137.50281 151.20083,131.84667 145.52904,127.06432 C 139.85698,122.28225 131.09861,119.81552 119.31029,119.87682 C 102.48055,119.96433 86.864657,124.92346 71.622785,134.40807 C 56.188647,144.01233 43.323215,157.43375 33.091535,174.78307 C 22.859805,192.13259 17.716525,209.08719 17.716535,225.65807 C 17.716525,238.00289 21.830415,249.27014 30.060285,259.50182 C 38.290115,269.73354 50.541695,274.87681 66.779035,274.87682 C 90.690037,274.87682 115.82739,261.79346 142.18529,235.65807 z M 113.15404,128.22057 C 118.60271,128.14727 122.7352,129.70055 125.65404,132.56432 C 128.62955,135.48369 130.1539,139.2372 130.15404,143.90807 C 130.15391,151.58198 126.69886,159.68311 119.81029,168.25182 C 113.01951,176.69889 102.81579,184.04104 89.122787,190.12682 C 78.793516,194.7176 65.394945,197.89249 48.935285,199.78307 C 54.940815,176.20572 64.289458,158.42082 76.966535,146.40807 C 89.50772,134.52409 101.347,128.3794 113.15404,128.22057 z"/>
</svg>
